<svg id="OBJECTS" xmlns="http://www.w3.org/2000/svg" width="483.1" height="206.7" viewBox="0 0 483.1 206.7"><defs><style>.cls-1{fill:#ffda00;}.cls-2{fill:#fff;}</style></defs><path class="cls-1" d="M7.4,197.9,51.1,13.8l74.1.7L91.4,197.9Z"/><path class="cls-2" d="M156,189.7a35,35,0,0,0,8.1,4.4c-1.5,2.6-4.7,3.3-8.9,3.3-9.9,0-19.8.3-29.6.5l-36.3.5a77.8,77.8,0,0,1-13.6-1,46.7,46.7,0,0,1,1.4-92.2c4.6-.6,9.3-.4,14.4-.8-10.5-5-15.2-9.7-19.1-14.8a45.3,45.3,0,0,1-9.3-34.9,45.5,45.5,0,0,1,16-29.2c9-7.7,19.6-11.3,31.4-11.3,4,.1,8,.4,12,.4h30.6c6.9.1,8.5-.5,12.8.9.5.2.8.9,1,2A38.1,38.1,0,0,0,156,22.9a27.1,27.1,0,0,0-8.2,9.7,27.9,27.9,0,0,0-2.9,12.7,27.8,27.8,0,0,0,.7,6.6,39.3,39.3,0,0,0,1.9,5.8,44.5,44.5,0,0,0,2.5,5.4c.9,1.8,1.9,3.5,2.8,5.2s2.5,5.2,3.5,7.8a23.9,23.9,0,0,1,1.5,8.6,15.8,15.8,0,0,1-1,6.2,8.6,8.6,0,0,1-3.3,4,14.6,14.6,0,0,1-5.8,2,53.9,53.9,0,0,1-8.7.6v17.6a53.9,53.9,0,0,1,8.7.6,14.6,14.6,0,0,1,5.8,2.1,8.9,8.9,0,0,1,3.3,3.9,16.5,16.5,0,0,1,1,6.2,24.7,24.7,0,0,1-1.9,9.7,91.9,91.9,0,0,1-4.3,9c-1.6,3.1-3.2,6.3-4.6,9.6a28.9,28.9,0,0,0-2.1,11.1,28.3,28.3,0,0,0,2.9,12.8A26,26,0,0,0,156,189.7Z"/><path class="cls-2" d="M232.4,90.2a4,4,0,0,0-1-3,6.5,6.5,0,0,0-2.4-1.9,19,19,0,0,0-3.6-1.2l-4.1-.9a49.4,49.4,0,0,1-5.5-1.5,16.1,16.1,0,0,1-4.5-2.4,11.8,11.8,0,0,1-3.2-3.8,13.2,13.2,0,0,1-1.2-5.9,16.2,16.2,0,0,1,1.4-6.8,12.3,12.3,0,0,1,3.7-4.7,14.6,14.6,0,0,1,5.4-2.8,22.6,22.6,0,0,1,7.1-1,43.2,43.2,0,0,1,7.9.8,34.5,34.5,0,0,1,6.8,2v7.7a39.7,39.7,0,0,0-7.3-2.2,32.3,32.3,0,0,0-6.6-.7c-3,0-5.2.5-6.8,1.6a5.5,5.5,0,0,0-2.4,4.8,4.9,4.9,0,0,0,.8,3.1,5.8,5.8,0,0,0,2.1,2,12.6,12.6,0,0,0,3.1,1.3l3.7.9a52.6,52.6,0,0,1,6,1.5,17.9,17.9,0,0,1,5,2.4,9.7,9.7,0,0,1,3.5,4,12.8,12.8,0,0,1,1.3,6.3,15.2,15.2,0,0,1-1.5,6.9,11.6,11.6,0,0,1-4.1,4.7,18,18,0,0,1-6.6,2.8,35.8,35.8,0,0,1-8.4,1,40.5,40.5,0,0,1-7.8-.8,23.4,23.4,0,0,1-6.5-2.3V94.6a34,34,0,0,0,14.2,3,19.9,19.9,0,0,0,4.2-.4,11.5,11.5,0,0,0,3.7-1.2,7.1,7.1,0,0,0,2.6-2.3A6.3,6.3,0,0,0,232.4,90.2Z"/><path class="cls-2" d="M260.5,96.7h24.1v7.5h-33v-49h31.7v7.5H260.5V75.4h19.6v7.5H260.5Z"/><path class="cls-2" d="M319.7,78c3.5,5,6.3,9.5,8.5,13.3h.3c-.3-6.3-.5-11-.5-13.9V55.2h9v49h-9.4l-16-22.5c-2.8-3.9-5.7-8.5-8.7-13.6h-.2c.3,6,.4,10.6.4,13.9v22.2h-9v-49h9.5Z"/><path class="cls-2" d="M348.7,104.2v-49h9v49Z"/><path class="cls-2" d="M415,79.7A33.2,33.2,0,0,1,413.4,90a22,22,0,0,1-4.7,8,20.4,20.4,0,0,1-7.5,5.3,26.7,26.7,0,0,1-10.1,1.9,26.4,26.4,0,0,1-10.1-1.9,21.7,21.7,0,0,1-7.6-5.3,23.3,23.3,0,0,1-4.6-8,30.5,30.5,0,0,1-1.6-10.3,30.3,30.3,0,0,1,1.6-10.2,24.8,24.8,0,0,1,4.6-8.1,21.4,21.4,0,0,1,7.6-5.2,24.6,24.6,0,0,1,10.1-1.9,24.9,24.9,0,0,1,10.1,1.9,20.2,20.2,0,0,1,7.5,5.2,23.3,23.3,0,0,1,4.7,8.1A33,33,0,0,1,415,79.7Zm-9.3,0a26.7,26.7,0,0,0-1.1-7.8,17.6,17.6,0,0,0-3-5.6,11.8,11.8,0,0,0-4.7-3.3,15.4,15.4,0,0,0-5.8-1.1,16.3,16.3,0,0,0-5.9,1.1,11.5,11.5,0,0,0-4.6,3.3,15.8,15.8,0,0,0-3,5.6,23.7,23.7,0,0,0-1.1,7.8,24,24,0,0,0,1.1,7.9,15.3,15.3,0,0,0,3,5.5,12.8,12.8,0,0,0,4.6,3.4,16.3,16.3,0,0,0,5.9,1.1,15.4,15.4,0,0,0,5.8-1.1,13.2,13.2,0,0,0,4.7-3.4,17,17,0,0,0,3-5.5A26.9,26.9,0,0,0,405.7,79.7Z"/><path class="cls-2" d="M460.7,70a13.5,13.5,0,0,1-2.8,8.7,16.8,16.8,0,0,1-8.8,5.2v.2l14.6,20.1H452.9L439.6,85.3h-6.1v18.9h-9v-49h14.9a50.9,50.9,0,0,1,6.9.5,24.1,24.1,0,0,1,5.4,1.2,14.9,14.9,0,0,1,6.7,4.9A13.5,13.5,0,0,1,460.7,70Zm-22.8,7.8a38.4,38.4,0,0,0,5.2-.3,24.5,24.5,0,0,0,3.6-.8,7.7,7.7,0,0,0,3.8-2.8,8,8,0,0,0,1-4.1,7.8,7.8,0,0,0-.8-3.5,6.1,6.1,0,0,0-2.8-2.4,12.2,12.2,0,0,0-3.2-.9,32.3,32.3,0,0,0-4.8-.3h-6.4V77.8Z"/><path class="cls-2" d="M207.8,130.9h2v12.6a4.8,4.8,0,0,1-.3,1.8,3.8,3.8,0,0,1-.9,1.2,3.9,3.9,0,0,1-1.4.8,5,5,0,0,1-1.8.2H204l-.9-.3v-1.7l1,.3h2.2l.8-.5a1.8,1.8,0,0,0,.5-.7,5.1,5.1,0,0,0,.2-1.3Z"/><path class="cls-2" d="M212.2,147.2l6.7-16.3h1.7l6.6,16.3h-2.1l-2-4.9h-6.8l-2,4.9Zm7.5-13.8c-.7,2.1-1.4,3.9-2.1,5.6l-.6,1.5h5.4l-.6-1.5c-.7-1.7-1.4-3.6-2.1-5.6Z"/><path class="cls-2" d="M233.9,144.7c.6-1.8,1.2-3.6,1.9-5.4l3.1-8.4h2l-6.2,16.3H233l-6.2-16.3h2l3.1,8.4c.7,1.8,1.4,3.6,1.9,5.4Z"/><path class="cls-2" d="M240.6,147.2l6.6-16.3h1.7l6.7,16.3h-2.2l-1.9-4.9h-6.8l-2,4.9Zm7.5-13.8L246,139l-.6,1.5h5.4l-.6-1.5c-.7-1.7-1.4-3.6-2.1-5.6Z"/><path class="cls-2" d="M259.7,135.2a2.1,2.1,0,0,0,.3,1.2,2,2,0,0,0,.8.8l1.1.5,1.4.4,1.8.5,1.7.7a6.9,6.9,0,0,1,1.1,1.3,4.3,4.3,0,0,1,.5,2.1,5.4,5.4,0,0,1-.5,2.2,4.7,4.7,0,0,1-1.3,1.5,7.2,7.2,0,0,1-2,.9l-2.6.2h-1.3l-1.3-.3a1.7,1.7,0,0,1-1-.3l-.8-.3v-1.8l1,.4,1.1.3,1.2.2H262l1.6-.2a2.9,2.9,0,0,0,1.4-.5,2,2,0,0,0,.9-.9,2.4,2.4,0,0,0,.4-1.5,2.1,2.1,0,0,0-.3-1.2,3,3,0,0,0-.8-.8,4.3,4.3,0,0,0-1.2-.5l-1.3-.3-1.9-.5-1.6-.8a3,3,0,0,1-1.2-1.3,3.6,3.6,0,0,1-.4-1.9,4.8,4.8,0,0,1,.4-2.2,4.7,4.7,0,0,1,1.3-1.5,7.5,7.5,0,0,1,1.8-.8,7.1,7.1,0,0,1,2.1-.3l2.5.2,2,.7v1.8l-2.1-.7-2.3-.2a4.1,4.1,0,0,0-1.6.2l-1.1.5-.7.9A5,5,0,0,0,259.7,135.2Z"/><path class="cls-2" d="M279.8,132.4a7.5,7.5,0,0,0-2.6.4,5.7,5.7,0,0,0-2.1,1.3,7.4,7.4,0,0,0-1.3,2.1,7.3,7.3,0,0,0-.5,3,8.5,8.5,0,0,0,.4,2.9,5.2,5.2,0,0,0,1.4,2.1,5.6,5.6,0,0,0,2,1.2,12.6,12.6,0,0,0,2.8.4h1.7l.9-.2.8-.2V147l-1.6.4h-2a9.8,9.8,0,0,1-3.6-.5,6.9,6.9,0,0,1-2.7-1.7,7.2,7.2,0,0,1-1.6-2.5,12.9,12.9,0,0,1-.5-3.5,9.5,9.5,0,0,1,.6-3.5,7.1,7.1,0,0,1,1.6-2.8,10.6,10.6,0,0,1,2.7-1.8,9.5,9.5,0,0,1,3.5-.6h1l.9.2.9.2.7.2v1.7l-1.6-.4Z"/><path class="cls-2" d="M288.6,140.5v6.7h-2V130.9h6.1l1.4.2a5.3,5.3,0,0,1,2.6,1.6,4.5,4.5,0,0,1,.9,2.8,3.4,3.4,0,0,1-.4,1.8,5.7,5.7,0,0,1-.8,1.3,7.1,7.1,0,0,1-1.4,1l-1.8.5h0l4.8,6.9h-2l-5-6.7Zm0-7.8v6h3.5l1.2-.2a2.9,2.9,0,0,0,1.6-1,2.8,2.8,0,0,0,.6-1.8,2.4,2.4,0,0,0-.6-1.7,1.9,1.9,0,0,0-1.4-.9l-1.1-.2h-3.8Z"/><path class="cls-2" d="M301.4,147.2V130.9h2v16.3Z"/><path class="cls-2" d="M309.5,147.2h-1.9V130.9H314l1.5.4a5.6,5.6,0,0,1,2.3,1.6,4.1,4.1,0,0,1,.7,2.5,4.8,4.8,0,0,1-.5,2.2,3.6,3.6,0,0,1-1.4,1.6,7,7,0,0,1-2.3,1,14.2,14.2,0,0,1-3.1.3h-1.7Zm0-8.5h1.7l2.4-.2a4.8,4.8,0,0,0,1.6-.7,2.2,2.2,0,0,0,.9-1,2.9,2.9,0,0,0,.3-1.4,2.4,2.4,0,0,0-.4-1.5,3.8,3.8,0,0,0-1.3-.9,2.8,2.8,0,0,0-1.3-.3h-3.9Z"/><path class="cls-2" d="M327.7,147.2h-2V132.7h-5.5v-1.8h12.9v1.8h-5.4Z"/><path class="cls-2" d="M353.9,139a11.8,11.8,0,0,1-.3,2.7,7.6,7.6,0,0,1-1.1,2.2,7.7,7.7,0,0,1-1.8,1.8,6.4,6.4,0,0,1-2.5,1.1,4.7,4.7,0,0,1-1.7.3h-5.8V130.9h5.8l1.8.3,2.5,1.1a6.9,6.9,0,0,1,1.7,1.7,6.1,6.1,0,0,1,1.1,2.3A10.9,10.9,0,0,1,353.9,139Zm-1.9,0a6.3,6.3,0,0,0-1.1-3.8,5.5,5.5,0,0,0-3-2.1,4.1,4.1,0,0,0-1.6-.3h-3.6v12.7h3.6l1.6-.4a5.5,5.5,0,0,0,3-2.1A6.7,6.7,0,0,0,352,139Z"/><path class="cls-2" d="M359.5,145.4h8.3v1.8H357.5V130.9h9.9v1.8h-7.9V138h7v1.8h-7Z"/><path class="cls-2" d="M376.8,144.7c.6-1.8,1.2-3.6,1.9-5.4l3.1-8.4h2l-6.2,16.3h-1.7l-6.2-16.3h2l3.1,8.4c.7,1.8,1.3,3.6,1.9,5.4Z"/><path class="cls-2" d="M388.4,145.4h8.4v1.8H386.4V130.9h9.9v1.8h-7.9V138h7.1v1.8h-7.1Z"/><path class="cls-2" d="M402.2,130.9v14.5h8v1.8h-10V130.9Z"/><path class="cls-2" d="M426.8,139.1a9.3,9.3,0,0,1-.5,3.4,7.2,7.2,0,0,1-1.5,2.7,8.1,8.1,0,0,1-2.4,1.7,7.8,7.8,0,0,1-3.1.6,7.9,7.9,0,0,1-3.2-.6,6.1,6.1,0,0,1-2.4-1.7,7.2,7.2,0,0,1-1.5-2.7,9.3,9.3,0,0,1-.6-3.4,9,9,0,0,1,.6-3.4,5.9,5.9,0,0,1,1.5-2.7,6.9,6.9,0,0,1,2.4-1.8,7.8,7.8,0,0,1,3.1-.6,7.9,7.9,0,0,1,3.2.6,5.5,5.5,0,0,1,2.4,1.8,5.9,5.9,0,0,1,1.5,2.7A9,9,0,0,1,426.8,139.1Zm-1.9,0a8.4,8.4,0,0,0-.5-2.9,4.3,4.3,0,0,0-1.2-2.1,5.2,5.2,0,0,0-1.7-1.3,5.9,5.9,0,0,0-2.3-.4,5.7,5.7,0,0,0-2.2.4,4.6,4.6,0,0,0-1.8,1.3,5.3,5.3,0,0,0-1.2,2.1,11.9,11.9,0,0,0-.4,2.9,8.8,8.8,0,0,0,.5,2.9,5.3,5.3,0,0,0,1.1,2.1,6.3,6.3,0,0,0,1.8,1.2,5.9,5.9,0,0,0,2.3.5,5.4,5.4,0,0,0,2.2-.5,4.8,4.8,0,0,0,1.7-1.2,5.5,5.5,0,0,0,1.2-2.1A8.8,8.8,0,0,0,424.9,139.1Z"/><path class="cls-2" d="M432.5,147.2h-2V130.9h6.4l1.6.4a4.7,4.7,0,0,1,2.2,1.6,4.1,4.1,0,0,1,.8,2.5,4.8,4.8,0,0,1-.5,2.2,3.9,3.9,0,0,1-1.5,1.6,7,7,0,0,1-2.3,1,13.9,13.9,0,0,1-3,.3h-1.7Zm0-8.5h1.7l2.4-.2a5.9,5.9,0,0,0,1.6-.7,2.2,2.2,0,0,0,.9-1,2.9,2.9,0,0,0,.3-1.4,2.5,2.5,0,0,0-.5-1.5,2.5,2.5,0,0,0-1.3-.9,2.4,2.4,0,0,0-1.2-.3h-3.9Z"/><path class="cls-2" d="M446.8,145.4h8.3v1.8H444.8V130.9h9.9v1.8h-7.9V138h7v1.8h-7Z"/><path class="cls-2" d="M460.5,140.5v6.7h-2V130.9h6.1l1.4.2a5.3,5.3,0,0,1,2.6,1.6,4.5,4.5,0,0,1,.9,2.8,4.8,4.8,0,0,1-.3,1.8,3.8,3.8,0,0,1-.9,1.3,7.1,7.1,0,0,1-1.4,1l-1.8.5h0l4.9,6.9h-2l-5.1-6.7Zm0-7.8v6h3.6l1.1-.2a2.6,2.6,0,0,0,1.6-1,2.8,2.8,0,0,0,.6-1.8,2.4,2.4,0,0,0-.6-1.7,1.9,1.9,0,0,0-1.4-.9l-1.1-.2h-3.8Z"/></svg>